<?xml version="1.0" encoding="UTF-8"?>
<svg xmlns="http://www.w3.org/2000/svg" xmlns:xlink="http://www.w3.org/1999/xlink" width="126.312pt" height="96.182pt" viewBox="0 0 126.312 96.182" version="1.1">
<g id="surface1">
<path style=" stroke:none;fill-rule:nonzero;fill:rgb(13.729858%,12.159729%,12.548828%);fill-opacity:1;" d="M 16.882812 24.929688 C 14.230469 23.457031 11.582031 20.316406 11.582031 15.605469 C 11.582031 9.914062 16.195312 5.59375 21.789062 5.59375 C 25.222656 5.59375 27.773438 6.96875 29.738281 9.128906 C 30.425781 8.734375 31.210938 8.539062 32.09375 8.539062 C 33.664062 8.539062 34.941406 9.324219 35.628906 10.109375 C 36.117188 9.914062 36.609375 9.816406 37.296875 9.816406 C 39.355469 9.816406 41.320312 11.386719 41.320312 13.839844 C 41.320312 15.605469 40.339844 16.980469 39.355469 17.960938 C 38.863281 18.449219 38.667969 18.746094 38.570312 19.433594 C 38.375 21.003906 38.863281 23.261719 39.75 24.535156 C 40.238281 25.222656 40.730469 25.617188 42.007812 25.519531 C 45.148438 25.320312 50.742188 24.832031 56.53125 24.832031 C 61.4375 24.832031 64.972656 24.929688 66.933594 24.832031 C 70.664062 23.652344 74.296875 22.574219 78.613281 21.492188 C 80.183594 21.101562 82.636719 20.609375 83.816406 19.238281 C 82.636719 19.925781 80.476562 20.414062 78.613281 20.609375 C 75.964844 21.003906 72.726562 21.59375 70.859375 21.886719 C 70.171875 21.984375 69.78125 21.789062 69.78125 21.296875 L 69.585938 16.292969 C 69.585938 15.996094 69.683594 15.898438 69.878906 15.898438 C 70.074219 15.898438 70.171875 15.996094 70.371094 16.097656 C 71.253906 16.585938 72.136719 16.882812 73.511719 16.882812 C 74.492188 16.882812 75.375 16.488281 75.375 15.703125 C 75.277344 15.015625 74.589844 14.429688 73.3125 14.429688 C 69.878906 14.429688 67.621094 17.175781 63.402344 17.175781 C 59.867188 17.175781 57.609375 14.917969 57.609375 12.367188 C 57.609375 10.503906 58.691406 9.128906 60.359375 8.441406 C 59.769531 9.324219 59.574219 9.914062 59.574219 10.699219 C 59.574219 12.5625 61.535156 13.9375 64.578125 13.9375 C 67.816406 13.9375 69.585938 13.152344 72.039062 13.152344 C 74.003906 13.152344 75.375 13.742188 75.765625 14.429688 C 75.671875 12.660156 74.394531 11.386719 72.429688 11.386719 C 71.449219 11.386719 70.46875 11.875 70.074219 12.5625 C 69.976562 12.757812 69.878906 12.855469 69.683594 12.855469 C 69.484375 12.855469 69.386719 12.757812 69.386719 12.5625 L 68.699219 6.871094 C 68.601562 6.183594 68.898438 5.59375 69.78125 5.496094 L 73.707031 5.105469 L 71.15625 0 L 76.160156 0 C 76.160156 0.980469 76.847656 1.667969 77.632812 1.667969 C 78.417969 1.667969 79.105469 0.980469 79.105469 0 L 83.324219 0 C 83.324219 0.980469 83.914062 1.667969 84.796875 1.667969 C 85.484375 1.667969 86.171875 0.980469 86.171875 0 L 91.273438 0 L 88.328125 5.890625 C 95.003906 8.539062 99.8125 14.820312 99.8125 22.179688 C 99.8125 28.65625 97.652344 32.289062 94.609375 36.410156 C 93.726562 37.492188 93.238281 38.667969 93.238281 41.222656 C 93.238281 46.914062 98.339844 51.527344 105.015625 51.527344 C 108.253906 51.527344 110.609375 51.035156 113.0625 49.859375 C 112.570312 49.953125 111.984375 49.953125 111.394531 49.953125 C 105.113281 49.953125 99.320312 44.949219 99.320312 38.179688 C 99.320312 32.683594 102.363281 29.050781 106.386719 26.203125 C 107.175781 25.617188 108.058594 25.027344 108.84375 24.4375 C 106.289062 22.277344 104.621094 20.023438 104.523438 17.175781 C 102.855469 16.585938 101.578125 15.113281 101.578125 13.054688 C 101.578125 10.304688 104.03125 7.949219 107.074219 7.949219 C 109.234375 7.949219 110.902344 8.832031 111.984375 9.71875 C 110.214844 10.992188 108.84375 12.855469 108.84375 15.3125 C 108.84375 18.058594 110.707031 20.121094 113.0625 21.691406 C 115.417969 20.121094 117.382812 18.058594 117.382812 15.3125 C 117.382812 12.855469 116.007812 10.992188 114.238281 9.71875 C 115.320312 8.832031 116.988281 7.949219 119.148438 7.949219 C 122.191406 7.949219 124.644531 10.304688 124.644531 13.054688 C 124.644531 15.113281 123.367188 16.585938 121.699219 17.175781 C 121.601562 20.21875 119.835938 22.476562 117.085938 24.734375 C 122.289062 28.757812 126.3125 32.585938 126.3125 38.570312 C 126.3125 47.796875 117.578125 56.824219 104.523438 56.824219 C 102.464844 56.824219 101.1875 56.53125 100.011719 56.238281 C 101.089844 57.808594 102.167969 59.378906 102.660156 61.929688 C 103.640625 62.222656 106.585938 62.421875 108.644531 62.421875 C 112.375 62.421875 117.480469 61.046875 118.757812 59.574219 C 119.246094 60.554688 119.734375 61.929688 119.734375 63.304688 C 119.734375 65.65625 117.96875 67.03125 115.910156 67.425781 C 116.695312 73.511719 117.480469 80.382812 117.480469 85.679688 C 117.480469 92.945312 115.023438 95.789062 111.492188 96.183594 C 111.6875 95.984375 111.785156 95.691406 111.785156 95.300781 C 111.785156 93.628906 110.214844 92.453125 108.449219 92.453125 C 105.507812 92.453125 104.328125 93.925781 101.285156 93.925781 C 98.832031 93.925781 97.949219 92.453125 95.789062 92.453125 C 94.414062 92.453125 93.433594 93.433594 93.433594 94.613281 C 93.433594 95.199219 93.632812 95.691406 94.023438 96.183594 C 91.273438 96.085938 89.015625 93.628906 89.015625 91.078125 C 89.015625 90.195312 89.214844 89.507812 89.605469 88.722656 C 88.921875 88.035156 88.328125 86.957031 88.328125 85.679688 C 88.328125 84.109375 89.507812 82.835938 91.175781 82.441406 C 91.371094 80.382812 93.140625 78.8125 95.296875 78.8125 C 97.851562 78.8125 99.519531 80.480469 100.402344 83.03125 C 100.597656 83.617188 100.796875 83.816406 101.382812 83.816406 C 102.464844 83.914062 103.933594 83.71875 104.816406 83.523438 C 105.308594 83.421875 105.601562 83.03125 105.601562 82.636719 C 105.507812 79.789062 104.917969 75.769531 104.328125 73.410156 C 103.347656 73.511719 100.402344 73.707031 98.734375 73.707031 C 94.414062 73.707031 90.292969 71.84375 88.132812 66.933594 C 81.851562 67.328125 75.570312 67.230469 69.484375 66.640625 C 69.386719 66.933594 69.386719 67.132812 69.386719 67.328125 C 69.386719 68.503906 70.371094 69.683594 71.742188 69.683594 C 73.019531 69.683594 74.003906 69.191406 74.492188 68.503906 C 74.785156 69.289062 74.980469 70.273438 74.980469 71.253906 C 74.980469 73.707031 73.117188 75.277344 70.761719 75.277344 C 70.269531 75.277344 69.78125 75.179688 69.585938 75.078125 C 69.484375 79.203125 69.878906 83.816406 69.878906 88.132812 C 69.878906 91.570312 67.914062 95.300781 63.5 96.183594 C 63.695312 95.984375 63.792969 95.691406 63.792969 95.300781 C 63.792969 93.628906 62.222656 92.453125 60.457031 92.453125 C 57.511719 92.453125 56.335938 93.925781 53.292969 93.925781 C 50.839844 93.925781 49.957031 92.453125 47.796875 92.453125 C 46.421875 92.453125 45.441406 93.433594 45.441406 94.613281 C 45.441406 95.199219 45.636719 95.691406 46.03125 96.183594 C 44.066406 96.085938 42.789062 94.808594 41.515625 93.730469 L 37.785156 90.488281 L 30.914062 59.96875 L 28.070312 58.101562 L 27.089844 53.585938 C 25.125 52.214844 24.144531 50.644531 24.144531 48.582031 C 24.144531 47.40625 24.632812 46.519531 25.222656 45.835938 C 24.929688 44.851562 24.832031 43.773438 24.832031 42.789062 L 22.574219 32.484375 L 16.78125 58.101562 L 13.9375 59.96875 L 6.675781 90.980469 L 0 96.183594 Z M 5.496094 90.488281 L 12.757812 59.378906 L 15.605469 57.414062 L 21.984375 29.640625 L 21.199219 26.203125 C 20.21875 26.105469 19.136719 25.8125 18.058594 25.421875 L 1.964844 93.335938 Z M 28.757812 40.339844 C 28.953125 40.339844 29.148438 40.339844 29.445312 40.4375 C 29.542969 39.652344 29.835938 39.0625 30.230469 38.667969 L 26.792969 22.769531 C 27.382812 22.378906 28.070312 21.789062 28.363281 21.296875 C 28.167969 19.824219 27.972656 17.960938 27.285156 16.78125 C 26.890625 19.433594 24.632812 21.003906 22.082031 21.003906 C 19.335938 21.003906 16.882812 18.746094 16.882812 15.800781 C 16.882812 12.953125 19.234375 10.699219 22.082031 10.699219 C 23.261719 10.699219 24.339844 11.089844 25.320312 11.777344 C 26.203125 11.089844 27.285156 10.894531 28.265625 10.894531 C 28.363281 10.601562 28.558594 10.304688 28.757812 10.011719 C 26.988281 7.949219 24.734375 6.96875 21.789062 6.96875 C 16.78125 6.96875 12.855469 10.894531 12.855469 15.703125 C 12.855469 20.710938 16.78125 24.734375 21.59375 24.734375 L 22.179688 24.734375 L 25.910156 41.710938 C 26.304688 41.121094 27.285156 40.339844 28.757812 40.339844 Z M 26.203125 16.683594 C 26.203125 16.292969 25.910156 16.097656 25.519531 16.097656 C 24.832031 16.097656 24.339844 16.683594 24.046875 17.566406 C 23.75 16.78125 23.554688 16.097656 23.554688 15.410156 C 23.554688 14.429688 23.847656 13.445312 24.4375 12.660156 C 23.75 12.171875 23.0625 11.972656 22.277344 11.972656 C 20.121094 11.972656 18.351562 13.640625 18.351562 15.800781 C 18.351562 17.960938 20.121094 19.726562 22.277344 19.726562 C 24.339844 19.726562 26.203125 17.960938 26.203125 16.683594 Z M 57.511719 35.921875 C 57.808594 32.484375 59.867188 28.460938 64.1875 26.304688 C 61.832031 26.203125 59.179688 26.105469 55.941406 26.105469 C 51.429688 26.105469 46.324219 26.402344 41.90625 26.792969 C 40.339844 26.890625 39.355469 26.203125 38.570312 25.125 C 37.492188 23.554688 37.097656 21.199219 37.195312 19.433594 C 37.296875 18.351562 37.785156 17.765625 38.570312 16.980469 C 39.355469 16.195312 39.945312 15.214844 39.945312 13.839844 C 39.945312 12.070312 38.570312 10.796875 37.097656 10.796875 C 36.609375 10.796875 36.214844 10.894531 36.019531 10.992188 C 36.3125 11.484375 36.609375 12.070312 36.609375 13.054688 C 36.609375 14.527344 36.019531 15.996094 34.941406 17.273438 C 35.527344 15.703125 35.726562 14.917969 35.726562 13.742188 C 35.726562 11.386719 34.054688 9.519531 31.898438 9.519531 C 30.816406 9.519531 29.640625 10.109375 29.148438 11.089844 C 31.210938 11.777344 32.585938 13.640625 32.585938 15.800781 C 32.585938 17.078125 32.191406 18.058594 31.800781 19.039062 C 31.898438 18.253906 31.898438 17.664062 31.898438 17.078125 C 31.898438 14.429688 30.328125 12.070312 27.972656 12.070312 C 25.320312 12.070312 24.144531 13.9375 24.242188 15.898438 C 24.535156 15.605469 25.125 15.214844 26.105469 15.214844 C 27.382812 15.214844 28.855469 15.898438 29.246094 18.648438 C 29.738281 22.378906 30.425781 24.339844 31.601562 26.5 C 32.09375 27.480469 32.585938 28.558594 32.585938 29.835938 C 32.585938 31.210938 31.699219 32.386719 30.71875 32.976562 C 31.699219 34.253906 33.367188 34.84375 35.824219 34.84375 C 37.492188 34.84375 38.964844 34.546875 41.121094 34.546875 C 45.933594 34.546875 49.957031 35.726562 52.507812 39.0625 C 54.273438 37.882812 55.746094 37 57.511719 35.921875 Z M 43.183594 59.476562 C 44.066406 58.398438 45.441406 56.433594 47.304688 54.765625 C 49.070312 53.195312 50.742188 52.015625 52.605469 51.035156 C 53.980469 50.347656 55.355469 49.859375 56.53125 49.859375 C 58.492188 49.859375 59.574219 51.035156 59.574219 52.015625 C 61.339844 51.035156 62.910156 50.152344 64.777344 49.367188 C 60.066406 47.011719 57.808594 42.695312 57.414062 37.785156 C 52.996094 40.042969 47.894531 44.066406 43.675781 47.601562 C 42.203125 48.777344 40.925781 48.777344 39.453125 48.285156 C 38.375 47.894531 37.097656 46.914062 36.511719 45.835938 C 36.3125 45.441406 36.214844 44.949219 36.214844 44.460938 L 36.3125 42.398438 C 36.410156 40.238281 34.742188 38.964844 33.074219 38.964844 C 31.898438 38.964844 30.816406 39.355469 30.328125 40.53125 C 32.09375 41.222656 33.664062 42.988281 33.859375 46.128906 C 32.386719 42.59375 30.71875 41.515625 29.148438 41.515625 C 26.597656 41.515625 25.8125 43.871094 25.910156 45.34375 C 26.5 45.050781 27.1875 44.851562 27.972656 44.851562 C 30.328125 44.851562 32.09375 46.617188 32.585938 48.976562 C 31.113281 46.914062 29.933594 46.03125 27.972656 46.03125 C 26.304688 46.03125 25.222656 47.304688 25.222656 48.875 C 25.222656 50.25 25.617188 51.527344 27.1875 52.703125 C 27.089844 51.328125 27.972656 50.152344 29.34375 50.152344 C 30.71875 50.152344 31.503906 50.839844 32.386719 51.917969 C 34.15625 54.175781 35.726562 55.355469 37.589844 56.335938 C 39.0625 57.121094 39.550781 58.296875 39.550781 59.28125 C 39.550781 59.867188 39.355469 60.554688 38.964844 61.144531 C 39.257812 61.339844 39.652344 61.339844 40.140625 61.339844 C 41.121094 61.339844 42.300781 60.652344 43.183594 59.476562 Z M 31.40625 29.835938 C 31.40625 29.050781 31.015625 28.167969 30.71875 27.480469 C 30.03125 26.007812 29.246094 24.4375 28.757812 22.867188 L 28.167969 23.457031 L 30.132812 32.09375 C 30.621094 31.898438 31.40625 30.914062 31.40625 29.835938 Z M 41.023438 91.078125 C 41.023438 90.195312 41.222656 89.507812 41.613281 88.722656 C 40.925781 88.035156 40.339844 86.957031 40.339844 85.679688 C 40.339844 85.191406 40.4375 84.796875 40.632812 84.40625 L 34.054688 55.355469 C 33.269531 54.664062 32.289062 53.585938 31.503906 52.703125 C 30.71875 51.722656 30.132812 51.328125 29.34375 51.328125 C 28.65625 51.328125 28.070312 51.917969 28.265625 52.996094 L 29.246094 57.414062 L 32.09375 59.378906 L 38.964844 89.996094 L 41.121094 91.863281 C 41.023438 91.570312 41.023438 91.371094 41.023438 91.078125 Z M 42.988281 46.617188 C 45.34375 44.558594 48.285156 42.203125 51.527344 39.746094 C 49.171875 37 45.34375 35.921875 41.222656 35.921875 C 38.179688 35.921875 36.902344 36.117188 35.527344 36.117188 C 33.761719 36.117188 31.601562 35.527344 30.523438 34.253906 L 31.40625 38.078125 C 31.800781 37.882812 32.585938 37.6875 33.269531 37.6875 C 35.332031 37.6875 37.492188 39.160156 37.492188 41.90625 C 37.492188 42.695312 37.296875 43.675781 37.296875 44.164062 C 37.296875 44.65625 37.394531 45.050781 37.589844 45.34375 C 38.078125 46.03125 39.160156 46.914062 40.042969 47.207031 C 41.023438 47.503906 41.90625 47.503906 42.988281 46.617188 Z M 57.121094 83.523438 C 57.609375 83.421875 57.90625 83.03125 57.90625 82.539062 C 57.808594 76.945312 56.628906 69.683594 56.628906 64.1875 C 56.628906 60.066406 57.710938 57.023438 62.421875 55.449219 C 66.738281 53.980469 72.136719 53.292969 74.980469 53.292969 C 75.570312 53.292969 76.257812 53.292969 77.632812 53.488281 C 73.410156 51.820312 69.976562 50.9375 66.542969 50.152344 C 64.089844 51.035156 61.046875 52.703125 58.101562 54.371094 C 58.296875 53.882812 58.394531 53.488281 58.394531 52.996094 C 58.394531 52.117188 57.808594 51.230469 56.53125 51.230469 C 55.355469 51.230469 54.175781 51.722656 53.195312 52.214844 C 51.527344 53.097656 49.5625 54.371094 48.1875 55.648438 C 46.324219 57.316406 44.949219 59.082031 44.164062 60.066406 C 42.988281 61.535156 41.417969 62.421875 39.75 62.421875 C 38.863281 62.421875 38.078125 62.222656 37.394531 61.734375 C 37.882812 61.242188 38.375 60.652344 38.375 59.671875 C 38.375 58.886719 37.980469 58.101562 37.394531 57.613281 C 36.804688 57.121094 36.117188 56.824219 35.628906 56.433594 L 41.613281 83.128906 C 42.007812 82.835938 42.496094 82.636719 43.183594 82.441406 C 43.378906 80.382812 45.148438 78.8125 47.304688 78.8125 C 49.859375 78.8125 51.527344 80.480469 52.410156 83.03125 C 52.605469 83.617188 52.800781 83.816406 53.390625 83.816406 C 54.46875 83.914062 56.238281 83.71875 57.121094 83.523438 Z M 44.460938 93.730469 C 44.460938 92.15625 45.933594 90.980469 47.796875 90.980469 C 50.25 90.980469 51.625 92.550781 53.683594 92.550781 C 56.140625 92.550781 56.824219 91.078125 60.261719 91.078125 C 62.8125 91.078125 64.675781 92.648438 64.777344 94.414062 C 66.738281 93.628906 68.40625 91.175781 68.40625 88.132812 C 68.40625 84.109375 68.210938 78.613281 68.210938 73.609375 C 68.898438 73.804688 69.585938 74 70.761719 74 C 72.628906 74 73.707031 72.824219 73.707031 71.449219 C 73.707031 71.058594 73.707031 70.761719 73.609375 70.46875 C 72.921875 70.761719 72.234375 70.859375 71.644531 70.859375 C 69.78125 70.859375 68.113281 69.390625 68.015625 66.738281 C 68.015625 66.246094 68.015625 65.855469 68.113281 65.464844 C 73.214844 65.855469 78.808594 66.148438 83.914062 65.855469 C 82.441406 65.265625 81.851562 63.992188 81.851562 62.910156 C 81.851562 62.125 82.34375 61.4375 83.03125 61.144531 C 81.753906 58.199219 79.398438 55.941406 77.339844 54.570312 C 73.609375 54.371094 67.523438 55.257812 63.007812 56.628906 C 58.886719 57.90625 58.101562 60.949219 58.101562 64.1875 C 58.101562 68.699219 58.984375 75.671875 58.984375 82.636719 C 58.984375 83.617188 58.59375 84.207031 57.808594 84.503906 C 56.726562 84.992188 54.570312 85.285156 53.097656 85.09375 C 52.214844 84.992188 51.722656 84.699219 51.328125 83.617188 C 50.546875 81.363281 49.070312 79.988281 47.304688 79.988281 C 45.441406 79.988281 44.460938 81.363281 44.164062 82.34375 C 47.207031 82.34375 49.171875 83.914062 50.25 85.976562 C 48.484375 84.40625 46.71875 83.421875 44.558594 83.421875 C 42.59375 83.421875 41.417969 84.699219 41.417969 86.074219 C 41.417969 86.761719 41.515625 87.644531 42.007812 88.132812 C 42.691406 87.152344 44.359375 86.5625 45.636719 86.5625 C 47.699219 86.5625 48.972656 87.644531 49.464844 88.625 C 48.386719 87.839844 47.304688 87.546875 46.03125 87.546875 C 44.066406 87.546875 42.300781 89.019531 42.300781 90.980469 C 42.300781 92.945312 43.28125 94.515625 44.949219 95.398438 C 44.65625 94.90625 44.460938 94.316406 44.460938 93.730469 Z M 69.488281 14.328125 C 66.640625 14.917969 65.265625 15.113281 64.382812 15.113281 C 60.949219 15.113281 58.886719 13.542969 58.691406 11.484375 C 58.296875 13.9375 60.066406 16.097656 63.207031 16.097656 C 65.167969 16.097656 67.03125 15.507812 69.488281 14.328125 Z M 62.910156 39.945312 C 62.910156 34.449219 66.738281 30.816406 72.335938 28.757812 C 75.082031 27.773438 78.613281 26.890625 82.933594 24.828125 C 87.253906 22.769531 89.507812 19.238281 89.507812 14.230469 C 89.507812 10.304688 88.132812 7.164062 85.289062 6.085938 C 87.054688 7.261719 87.347656 8.441406 87.347656 9.617188 C 87.347656 10.992188 86.269531 11.972656 85.191406 11.972656 C 84.210938 11.972656 83.71875 11.285156 83.324219 10.402344 C 83.816406 10.894531 84.210938 11.089844 84.796875 11.089844 C 85.777344 11.089844 86.269531 10.402344 86.269531 9.519531 C 86.269531 6.871094 84.011719 5.789062 80.871094 5.789062 C 79.214844 5.789062 76.917969 5.933594 74.515625 6.152344 C 74.730469 6.335938 74.957031 6.488281 75.179688 6.574219 C 75.769531 6.871094 76.453125 6.96875 77.4375 7.066406 C 78.808594 7.261719 80.085938 7.359375 81.164062 7.753906 C 79.988281 7.753906 78.910156 7.949219 77.925781 8.242188 C 77.632812 9.226562 77.238281 9.714844 76.554688 9.714844 C 75.867188 9.714844 75.375 9.324219 74.984375 8.636719 C 74.664062 8 74.34375 7.105469 74.058594 6.195312 C 72.621094 6.335938 71.15625 6.496094 69.78125 6.675781 L 70.171875 11.1875 C 70.46875 10.796875 71.449219 10.304688 72.527344 10.304688 C 74.980469 10.304688 76.847656 12.171875 76.847656 14.429688 C 76.847656 16.882812 75.277344 17.960938 73.3125 17.960938 C 72.136719 17.960938 71.054688 17.46875 70.46875 17.078125 L 70.664062 20.710938 C 73.511719 20.21875 76.0625 19.824219 79.300781 19.433594 C 83.226562 18.84375 86.859375 17.960938 86.957031 11.875 C 87.152344 12.269531 87.445312 13.152344 87.445312 13.9375 C 87.445312 17.960938 84.992188 20.710938 81.066406 21.984375 C 76.75 23.359375 71.449219 24.632812 67.816406 25.910156 C 62.714844 27.675781 58.789062 31.601562 58.789062 36.902344 C 58.789062 42.300781 61.144531 46.816406 67.03125 49.074219 C 63.894531 46.226562 62.910156 43.378906 62.910156 39.945312 Z M 68.703125 42.988281 C 68.703125 38.472656 71.84375 35.332031 76.355469 33.367188 C 79.988281 31.800781 82.441406 30.621094 85.484375 29.050781 C 90.292969 26.5 92.355469 21.59375 92.355469 16.683594 C 92.355469 11.875 90.589844 8.046875 87.839844 6.773438 C 89.410156 8.144531 90.589844 10.796875 90.589844 14.230469 C 90.589844 19.53125 88.230469 23.75 83.421875 26.007812 C 80.085938 27.578125 77.046875 28.460938 73.117188 29.835938 C 67.816406 31.601562 64.285156 35.136719 64.285156 40.042969 C 64.285156 43.96875 66.445312 48.484375 69.976562 49.660156 L 71.742188 50.25 C 69.585938 48.1875 68.703125 45.734375 68.703125 42.988281 Z M 73.902344 46.421875 C 73.902344 42.496094 76.554688 39.847656 79.890625 38.078125 C 82.835938 36.511719 85.089844 35.429688 87.445312 33.859375 C 93.335938 30.03125 95.398438 25.417969 95.398438 19.53125 C 95.398438 15.3125 93.925781 10.601562 90.390625 7.949219 C 92.15625 10.011719 93.433594 12.757812 93.433594 16.78125 C 93.433594 22.082031 91.667969 26.890625 86.269531 29.933594 C 83.421875 31.601562 80.28125 33.074219 76.847656 34.546875 C 73.511719 35.921875 70.074219 38.765625 70.074219 43.183594 C 70.074219 46.914062 72.136719 49.757812 74.882812 51.132812 L 76.453125 51.917969 C 75.082031 50.644531 73.902344 48.875 73.902344 46.421875 Z M 89.507812 0.980469 L 87.054688 0.980469 C 86.859375 1.964844 85.777344 2.746094 84.796875 2.746094 C 83.621094 2.746094 82.734375 2.0625 82.539062 0.980469 L 79.890625 0.980469 C 79.695312 1.964844 78.714844 2.746094 77.632812 2.746094 C 76.453125 2.746094 75.671875 2.0625 75.472656 0.980469 L 73.019531 0.980469 L 74.6875 5.003906 C 76.554688 4.90625 78.910156 4.808594 80.578125 4.808594 C 83.816406 4.808594 85.582031 5.199219 87.347656 5.59375 Z M 79.105469 49.269531 C 79.105469 47.207031 79.695312 45.933594 80.773438 44.753906 C 83.621094 41.417969 87.839844 40.4375 91.472656 37.492188 C 96.183594 33.566406 98.539062 28.265625 98.539062 22.179688 C 98.539062 17.078125 96.28125 12.855469 93.53125 10.109375 C 95.199219 12.367188 96.476562 15.800781 96.476562 19.53125 C 96.476562 25.910156 94.710938 30.523438 88.332031 34.839844 C 86.269531 36.214844 83.03125 37.785156 80.480469 39.160156 C 77.828125 40.632812 75.277344 43.085938 75.277344 46.421875 C 75.277344 49.953125 77.535156 52.3125 80.96875 53.78125 C 79.695312 52.605469 79.105469 50.9375 79.105469 49.269531 Z M 87.546875 65.5625 C 86.660156 60.457031 84.699219 56.925781 80.675781 54.570312 C 79.890625 54.078125 79.203125 54.664062 79.792969 55.15625 C 81.066406 56.335938 83.71875 58.886719 84.601562 61.734375 C 83.71875 61.734375 83.324219 62.324219 83.324219 63.007812 C 83.324219 64.679688 85.089844 65.757812 86.269531 65.757812 C 86.757812 65.757812 87.152344 65.65625 87.546875 65.5625 Z M 92.453125 93.726562 C 92.453125 92.15625 93.925781 90.980469 95.789062 90.980469 C 98.242188 90.980469 99.617188 92.550781 101.679688 92.550781 C 104.132812 92.550781 104.820312 91.078125 108.253906 91.078125 C 110.804688 91.078125 112.671875 92.648438 112.769531 94.414062 C 114.730469 93.628906 116.105469 91.273438 116.105469 86.367188 C 116.105469 80.085938 115.222656 72.332031 114.242188 66.445312 C 117.28125 66.246094 118.460938 65.070312 118.460938 63.304688 C 118.460938 62.617188 118.265625 62.027344 118.066406 61.636719 C 115.222656 63.007812 112.179688 63.792969 108.644531 63.792969 C 106.191406 63.792969 102.953125 63.5 101.382812 62.910156 C 100.597656 58.984375 98.4375 55.648438 96.769531 53.882812 C 98.539062 54.664062 101.679688 55.449219 104.425781 55.449219 C 116.105469 55.449219 124.839844 47.304688 124.839844 38.570312 C 124.839844 33.269531 121.503906 29.445312 116.105469 25.519531 L 114.140625 26.890625 C 120.03125 30.914062 121.992188 34.644531 121.992188 38.179688 C 121.992188 42.988281 117.96875 46.816406 112.867188 46.816406 C 107.761719 46.816406 103.738281 42.988281 103.738281 38.179688 C 103.738281 33.566406 106.78125 30.425781 112.179688 26.792969 C 113.457031 26.007812 114.925781 24.929688 116.300781 23.949219 C 118.460938 22.277344 121.109375 19.335938 120.621094 16.488281 C 122.191406 16.097656 123.269531 15.210938 123.269531 13.054688 C 123.269531 10.699219 121.308594 9.03125 119.148438 9.03125 C 117.578125 9.03125 116.597656 9.421875 115.910156 9.714844 C 117.675781 11.285156 118.558594 13.347656 118.558594 15.113281 C 118.558594 17.960938 117.382812 19.921875 114.4375 21.984375 C 112.378906 23.457031 110.019531 24.929688 107.761719 26.597656 C 103.25 29.933594 100.796875 33.367188 100.796875 38.078125 C 100.796875 44.949219 106.390625 48.875 111.6875 48.875 C 114.730469 48.875 117.382812 48.285156 119.835938 46.519531 C 116.988281 49.757812 111.199219 52.800781 105.015625 52.800781 C 97.261719 52.800781 91.863281 47.503906 91.863281 41.222656 C 91.863281 39.847656 92.058594 38.867188 92.257812 38.375 C 88.429688 41.808594 84.699219 42.398438 82.050781 45.34375 C 80.871094 46.617188 80.480469 47.894531 80.480469 49.367188 C 80.480469 51.230469 81.363281 52.898438 82.636719 54.078125 C 84.011719 55.253906 85.484375 56.726562 86.269531 58.003906 C 87.546875 59.964844 88.230469 62.320312 88.820312 64.675781 C 90.195312 70.171875 94.21875 72.429688 99.324219 72.429688 C 100.992188 72.429688 104.132812 72.136719 105.703125 71.644531 C 105.507812 72.332031 105.507812 72.921875 105.703125 73.707031 C 106.390625 76.652344 106.882812 79.695312 106.976562 82.636719 C 106.976562 83.617188 106.585938 84.109375 105.703125 84.503906 C 104.621094 84.992188 102.5625 85.285156 101.089844 85.089844 C 100.207031 84.992188 99.714844 84.699219 99.324219 83.617188 C 98.539062 81.363281 97.066406 79.988281 95.296875 79.988281 C 93.433594 79.988281 92.453125 81.363281 92.15625 82.34375 C 95.199219 82.34375 97.164062 83.914062 98.242188 85.976562 C 96.476562 84.40625 94.710938 83.421875 92.550781 83.421875 C 90.589844 83.421875 89.410156 84.699219 89.410156 86.074219 C 89.410156 86.761719 89.507812 87.644531 90 88.132812 C 90.6875 87.152344 92.355469 86.5625 93.632812 86.5625 C 95.691406 86.5625 96.96875 87.644531 97.460938 88.625 C 96.378906 87.839844 95.296875 87.546875 94.023438 87.546875 C 92.058594 87.546875 90.292969 89.015625 90.292969 90.980469 C 90.292969 92.941406 91.273438 94.511719 92.941406 95.398438 C 92.648438 94.90625 92.453125 94.316406 92.453125 93.726562 Z M 112.082031 22.277344 C 108.84375 19.921875 107.664062 17.960938 107.664062 15.113281 C 107.664062 13.347656 108.546875 11.285156 110.316406 9.714844 C 109.628906 9.421875 108.644531 9.03125 107.074219 9.03125 C 104.917969 9.03125 102.953125 10.699219 102.953125 13.054688 C 102.953125 15.210938 104.035156 16.097656 105.605469 16.488281 C 105.113281 19.238281 107.566406 21.984375 110.019531 23.847656 Z M 120.621094 38.179688 C 120.621094 34.054688 118.265625 31.113281 113.0625 27.578125 C 107.761719 31.113281 105.113281 33.859375 105.113281 38.179688 C 105.113281 42.300781 108.546875 45.636719 112.867188 45.636719 C 117.183594 45.636719 120.621094 42.300781 120.621094 38.179688 "/>
</g>
</svg>
